<mxfile host="Electron" modified="2023-06-13T00:32:45.504Z" agent="Mozilla/5.0 (Windows NT 10.0; Win64; x64) AppleWebKit/537.36 (KHTML, like Gecko) draw.io/21.2.8 Chrome/112.0.5615.165 Electron/24.2.0 Safari/537.36" etag="2oXB_sCVTHWufc0HTols" version="21.2.8" type="device">
  <diagram name="PÃ¡gina-1" id="l7MwAFHR4KHbIExG5bme">
    <mxGraphModel dx="1643" dy="1695" grid="1" gridSize="10" guides="1" tooltips="1" connect="1" arrows="1" fold="1" page="1" pageScale="1" pageWidth="827" pageHeight="1169" background="none" math="0" shadow="0">
      <root>
        <mxCell id="0" />
        <mxCell id="1" parent="0" />
        <mxCell id="H62_EkLdj0SKUPiLMSD7-23" style="edgeStyle=orthogonalEdgeStyle;rounded=0;orthogonalLoop=1;jettySize=auto;html=1;endArrow=none;endFill=0;" edge="1" parent="1" source="H62_EkLdj0SKUPiLMSD7-1" target="H62_EkLdj0SKUPiLMSD7-5">
          <mxGeometry relative="1" as="geometry">
            <Array as="points">
              <mxPoint x="80" y="210" />
              <mxPoint x="80" y="210" />
            </Array>
          </mxGeometry>
        </mxCell>
        <mxCell id="H62_EkLdj0SKUPiLMSD7-1" value="Empleado" style="swimlane;fontStyle=1;align=center;verticalAlign=top;childLayout=stackLayout;horizontal=1;startSize=26;horizontalStack=0;resizeParent=1;resizeParentMax=0;resizeLast=0;collapsible=1;marginBottom=0;whiteSpace=wrap;html=1;" vertex="1" parent="1">
          <mxGeometry x="-80" y="-103" width="350" height="230" as="geometry" />
        </mxCell>
        <mxCell id="H62_EkLdj0SKUPiLMSD7-2" value="- nombre: String&lt;br&gt;- apellido: String&lt;br&gt;- cuil: String&lt;br&gt;-fechaNacimiento: Date&lt;br&gt;-siTieneConyuge: Boolean&lt;br&gt;-siTieneHijos: Boolean&lt;br&gt;-fechaInicioLaboral: Date&lt;br&gt;" style="text;strokeColor=none;fillColor=none;align=left;verticalAlign=top;spacingLeft=4;spacingRight=4;overflow=hidden;rotatable=0;points=[[0,0.5],[1,0.5]];portConstraint=eastwest;whiteSpace=wrap;html=1;" vertex="1" parent="H62_EkLdj0SKUPiLMSD7-1">
          <mxGeometry y="26" width="350" height="114" as="geometry" />
        </mxCell>
        <mxCell id="H62_EkLdj0SKUPiLMSD7-3" value="" style="line;strokeWidth=1;fillColor=none;align=left;verticalAlign=middle;spacingTop=-1;spacingLeft=3;spacingRight=3;rotatable=0;labelPosition=right;points=[];portConstraint=eastwest;strokeColor=inherit;" vertex="1" parent="H62_EkLdj0SKUPiLMSD7-1">
          <mxGeometry y="140" width="350" height="8" as="geometry" />
        </mxCell>
        <mxCell id="H62_EkLdj0SKUPiLMSD7-4" value="+&amp;lt;&amp;lt;create&amp;gt;&amp;gt; Empelado(nombre:String, apellido:String, cuil:String, fechaNacimiento: Date, siTieneConyugue: Boolean, siTieneHijos: Boolean):Empleado&lt;br&gt;+ agregarContrato(contrato: Contrato)&lt;br&gt;+ devolverContratoActualVencido():Boolean" style="text;strokeColor=none;fillColor=none;align=left;verticalAlign=top;spacingLeft=4;spacingRight=4;overflow=hidden;rotatable=0;points=[[0,0.5],[1,0.5]];portConstraint=eastwest;whiteSpace=wrap;html=1;" vertex="1" parent="H62_EkLdj0SKUPiLMSD7-1">
          <mxGeometry y="148" width="350" height="82" as="geometry" />
        </mxCell>
        <mxCell id="H62_EkLdj0SKUPiLMSD7-5" value="&amp;lt;&amp;lt;abstract&amp;gt;&amp;gt;&lt;br&gt;Contrato" style="swimlane;fontStyle=1;align=center;verticalAlign=top;childLayout=stackLayout;horizontal=1;startSize=40;horizontalStack=0;resizeParent=1;resizeParentMax=0;resizeLast=0;collapsible=1;marginBottom=0;whiteSpace=wrap;html=1;" vertex="1" parent="1">
          <mxGeometry x="-40" y="260" width="250" height="150" as="geometry" />
        </mxCell>
        <mxCell id="H62_EkLdj0SKUPiLMSD7-6" value="- fechaInicio: Date" style="text;strokeColor=none;fillColor=none;align=left;verticalAlign=top;spacingLeft=4;spacingRight=4;overflow=hidden;rotatable=0;points=[[0,0.5],[1,0.5]];portConstraint=eastwest;whiteSpace=wrap;html=1;" vertex="1" parent="H62_EkLdj0SKUPiLMSD7-5">
          <mxGeometry y="40" width="250" height="20" as="geometry" />
        </mxCell>
        <mxCell id="H62_EkLdj0SKUPiLMSD7-7" value="" style="line;strokeWidth=1;fillColor=none;align=left;verticalAlign=middle;spacingTop=-1;spacingLeft=3;spacingRight=3;rotatable=0;labelPosition=right;points=[];portConstraint=eastwest;strokeColor=inherit;" vertex="1" parent="H62_EkLdj0SKUPiLMSD7-5">
          <mxGeometry y="60" width="250" height="8" as="geometry" />
        </mxCell>
        <mxCell id="H62_EkLdj0SKUPiLMSD7-8" value="- calcularAntiguedad():int&lt;br&gt;- montoAntiguedad():Real&lt;br&gt;+ crearReciboDeSueldo():ReciboDeSueldo&lt;br&gt;+ &amp;lt;&amp;lt;abstract&amp;gt;&amp;gt; calcularMontoTotal():Real&lt;br&gt;+ &amp;lt;&amp;lt;abstract&amp;gt;&amp;gt; estaVencido():Boolean&amp;nbsp;" style="text;strokeColor=none;fillColor=none;align=left;verticalAlign=top;spacingLeft=4;spacingRight=4;overflow=hidden;rotatable=0;points=[[0,0.5],[1,0.5]];portConstraint=eastwest;whiteSpace=wrap;html=1;" vertex="1" parent="H62_EkLdj0SKUPiLMSD7-5">
          <mxGeometry y="68" width="250" height="82" as="geometry" />
        </mxCell>
        <mxCell id="H62_EkLdj0SKUPiLMSD7-22" style="rounded=0;orthogonalLoop=1;jettySize=auto;html=1;endArrow=block;endFill=0;" edge="1" parent="1" source="H62_EkLdj0SKUPiLMSD7-9" target="H62_EkLdj0SKUPiLMSD7-5">
          <mxGeometry relative="1" as="geometry" />
        </mxCell>
        <mxCell id="H62_EkLdj0SKUPiLMSD7-9" value="PorHoras" style="swimlane;fontStyle=1;align=center;verticalAlign=top;childLayout=stackLayout;horizontal=1;startSize=26;horizontalStack=0;resizeParent=1;resizeParentMax=0;resizeLast=0;collapsible=1;marginBottom=0;whiteSpace=wrap;html=1;" vertex="1" parent="1">
          <mxGeometry x="-230" y="460" width="260" height="140" as="geometry" />
        </mxCell>
        <mxCell id="H62_EkLdj0SKUPiLMSD7-10" value="- valorHora: Real&lt;br&gt;- numHoras: Integer" style="text;strokeColor=none;fillColor=none;align=left;verticalAlign=top;spacingLeft=4;spacingRight=4;overflow=hidden;rotatable=0;points=[[0,0.5],[1,0.5]];portConstraint=eastwest;whiteSpace=wrap;html=1;" vertex="1" parent="H62_EkLdj0SKUPiLMSD7-9">
          <mxGeometry y="26" width="260" height="34" as="geometry" />
        </mxCell>
        <mxCell id="H62_EkLdj0SKUPiLMSD7-11" value="" style="line;strokeWidth=1;fillColor=none;align=left;verticalAlign=middle;spacingTop=-1;spacingLeft=3;spacingRight=3;rotatable=0;labelPosition=right;points=[];portConstraint=eastwest;strokeColor=inherit;" vertex="1" parent="H62_EkLdj0SKUPiLMSD7-9">
          <mxGeometry y="60" width="260" height="8" as="geometry" />
        </mxCell>
        <mxCell id="H62_EkLdj0SKUPiLMSD7-12" value="+&amp;lt;&amp;lt;create&amp;gt;&amp;gt;PorHoras(fechaInicio:Date, valorHora:Real, numHoras: Integer):PorHoras&lt;br&gt;+ calcularMontoTotal():Real&lt;br&gt;+ estaVencido():Boolean" style="text;strokeColor=none;fillColor=none;align=left;verticalAlign=top;spacingLeft=4;spacingRight=4;overflow=hidden;rotatable=0;points=[[0,0.5],[1,0.5]];portConstraint=eastwest;whiteSpace=wrap;html=1;" vertex="1" parent="H62_EkLdj0SKUPiLMSD7-9">
          <mxGeometry y="68" width="260" height="72" as="geometry" />
        </mxCell>
        <mxCell id="H62_EkLdj0SKUPiLMSD7-21" style="rounded=0;orthogonalLoop=1;jettySize=auto;html=1;endArrow=block;endFill=0;" edge="1" parent="1" source="H62_EkLdj0SKUPiLMSD7-17" target="H62_EkLdj0SKUPiLMSD7-5">
          <mxGeometry relative="1" as="geometry" />
        </mxCell>
        <mxCell id="H62_EkLdj0SKUPiLMSD7-17" value="DePlanta" style="swimlane;fontStyle=1;align=center;verticalAlign=top;childLayout=stackLayout;horizontal=1;startSize=26;horizontalStack=0;resizeParent=1;resizeParentMax=0;resizeLast=0;collapsible=1;marginBottom=0;whiteSpace=wrap;html=1;" vertex="1" parent="1">
          <mxGeometry x="110" y="460" width="350" height="160" as="geometry" />
        </mxCell>
        <mxCell id="H62_EkLdj0SKUPiLMSD7-18" value="- sueldoMensual: Real&lt;br&gt;- montoConyuge: Real&lt;br&gt;- montoHijos: Real" style="text;strokeColor=none;fillColor=none;align=left;verticalAlign=top;spacingLeft=4;spacingRight=4;overflow=hidden;rotatable=0;points=[[0,0.5],[1,0.5]];portConstraint=eastwest;whiteSpace=wrap;html=1;" vertex="1" parent="H62_EkLdj0SKUPiLMSD7-17">
          <mxGeometry y="26" width="350" height="54" as="geometry" />
        </mxCell>
        <mxCell id="H62_EkLdj0SKUPiLMSD7-19" value="" style="line;strokeWidth=1;fillColor=none;align=left;verticalAlign=middle;spacingTop=-1;spacingLeft=3;spacingRight=3;rotatable=0;labelPosition=right;points=[];portConstraint=eastwest;strokeColor=inherit;" vertex="1" parent="H62_EkLdj0SKUPiLMSD7-17">
          <mxGeometry y="80" width="350" height="8" as="geometry" />
        </mxCell>
        <mxCell id="H62_EkLdj0SKUPiLMSD7-20" value="+&amp;lt;&amp;lt;create&amp;gt;&amp;gt;DePlanta(fechaInicio:Date, sueldoMensual:Real, montoConyuge:Real, montoHijos:Real):DePlanta&lt;br&gt;+ calcularMontoTotal():Real&lt;br&gt;+ estaVencido():Boolean" style="text;strokeColor=none;fillColor=none;align=left;verticalAlign=top;spacingLeft=4;spacingRight=4;overflow=hidden;rotatable=0;points=[[0,0.5],[1,0.5]];portConstraint=eastwest;whiteSpace=wrap;html=1;" vertex="1" parent="H62_EkLdj0SKUPiLMSD7-17">
          <mxGeometry y="88" width="350" height="72" as="geometry" />
        </mxCell>
        <mxCell id="H62_EkLdj0SKUPiLMSD7-24" value="0..*&lt;br&gt;- contrato" style="text;html=1;align=center;verticalAlign=middle;resizable=0;points=[];autosize=1;strokeColor=none;fillColor=none;" vertex="1" parent="1">
          <mxGeometry x="80" y="220" width="70" height="40" as="geometry" />
        </mxCell>
        <mxCell id="H62_EkLdj0SKUPiLMSD7-29" style="edgeStyle=orthogonalEdgeStyle;rounded=0;orthogonalLoop=1;jettySize=auto;html=1;" edge="1" parent="1" source="H62_EkLdj0SKUPiLMSD7-25" target="H62_EkLdj0SKUPiLMSD7-1">
          <mxGeometry relative="1" as="geometry" />
        </mxCell>
        <mxCell id="H62_EkLdj0SKUPiLMSD7-25" value="Sistema" style="swimlane;fontStyle=1;align=center;verticalAlign=top;childLayout=stackLayout;horizontal=1;startSize=26;horizontalStack=0;resizeParent=1;resizeParentMax=0;resizeLast=0;collapsible=1;marginBottom=0;whiteSpace=wrap;html=1;" vertex="1" parent="1">
          <mxGeometry x="490" y="-53" width="290" height="130" as="geometry" />
        </mxCell>
        <mxCell id="H62_EkLdj0SKUPiLMSD7-26" value="+ field: type" style="text;strokeColor=none;fillColor=none;align=left;verticalAlign=top;spacingLeft=4;spacingRight=4;overflow=hidden;rotatable=0;points=[[0,0.5],[1,0.5]];portConstraint=eastwest;whiteSpace=wrap;html=1;" vertex="1" parent="H62_EkLdj0SKUPiLMSD7-25">
          <mxGeometry y="26" width="290" height="26" as="geometry" />
        </mxCell>
        <mxCell id="H62_EkLdj0SKUPiLMSD7-27" value="" style="line;strokeWidth=1;fillColor=none;align=left;verticalAlign=middle;spacingTop=-1;spacingLeft=3;spacingRight=3;rotatable=0;labelPosition=right;points=[];portConstraint=eastwest;strokeColor=inherit;" vertex="1" parent="H62_EkLdj0SKUPiLMSD7-25">
          <mxGeometry y="52" width="290" height="8" as="geometry" />
        </mxCell>
        <mxCell id="H62_EkLdj0SKUPiLMSD7-28" value="+ agregarEmpledado(empleado: Empleado)&lt;br&gt;+ buscarEmpleado(cuil: String): Empleado&lt;br&gt;+ eliminarEmpleado(empleado: Empleado)&lt;br&gt;+ empleadosConContratosVencidos(): Empleado[*]" style="text;strokeColor=none;fillColor=none;align=left;verticalAlign=top;spacingLeft=4;spacingRight=4;overflow=hidden;rotatable=0;points=[[0,0.5],[1,0.5]];portConstraint=eastwest;whiteSpace=wrap;html=1;" vertex="1" parent="H62_EkLdj0SKUPiLMSD7-25">
          <mxGeometry y="60" width="290" height="70" as="geometry" />
        </mxCell>
        <mxCell id="H62_EkLdj0SKUPiLMSD7-30" value="0..*&lt;br&gt;- empleados" style="text;html=1;align=center;verticalAlign=middle;resizable=0;points=[];autosize=1;strokeColor=none;fillColor=none;" vertex="1" parent="1">
          <mxGeometry x="340" y="-36" width="90" height="40" as="geometry" />
        </mxCell>
        <mxCell id="H62_EkLdj0SKUPiLMSD7-31" value="ReciboDeSueldo" style="swimlane;fontStyle=1;align=center;verticalAlign=top;childLayout=stackLayout;horizontal=1;startSize=26;horizontalStack=0;resizeParent=1;resizeParentMax=0;resizeLast=0;collapsible=1;marginBottom=0;whiteSpace=wrap;html=1;" vertex="1" parent="1">
          <mxGeometry x="400" y="200" width="320" height="180" as="geometry" />
        </mxCell>
        <mxCell id="H62_EkLdj0SKUPiLMSD7-32" value="- nombre: String&lt;br&gt;- apellido: String&lt;br&gt;- cuil: String&lt;br&gt;- antiguedad: Integer&lt;br&gt;-fecha: Date&lt;br&gt;- montoTotal: Real" style="text;strokeColor=none;fillColor=none;align=left;verticalAlign=top;spacingLeft=4;spacingRight=4;overflow=hidden;rotatable=0;points=[[0,0.5],[1,0.5]];portConstraint=eastwest;whiteSpace=wrap;html=1;" vertex="1" parent="H62_EkLdj0SKUPiLMSD7-31">
          <mxGeometry y="26" width="320" height="94" as="geometry" />
        </mxCell>
        <mxCell id="H62_EkLdj0SKUPiLMSD7-33" value="" style="line;strokeWidth=1;fillColor=none;align=left;verticalAlign=middle;spacingTop=-1;spacingLeft=3;spacingRight=3;rotatable=0;labelPosition=right;points=[];portConstraint=eastwest;strokeColor=inherit;" vertex="1" parent="H62_EkLdj0SKUPiLMSD7-31">
          <mxGeometry y="120" width="320" height="8" as="geometry" />
        </mxCell>
        <mxCell id="H62_EkLdj0SKUPiLMSD7-34" value="+ &amp;lt;&amp;lt;create&amp;gt;&amp;gt; ReciboDeSueldo(nombre:String, apellido: String, cuil: String, antiguedad:Date,montoTotal: Real): ReciboDeSueldo" style="text;strokeColor=none;fillColor=none;align=left;verticalAlign=top;spacingLeft=4;spacingRight=4;overflow=hidden;rotatable=0;points=[[0,0.5],[1,0.5]];portConstraint=eastwest;whiteSpace=wrap;html=1;" vertex="1" parent="H62_EkLdj0SKUPiLMSD7-31">
          <mxGeometry y="128" width="320" height="52" as="geometry" />
        </mxCell>
        <mxCell id="H62_EkLdj0SKUPiLMSD7-37" value="1&lt;br&gt;- empleado" style="text;html=1;align=center;verticalAlign=middle;resizable=0;points=[];autosize=1;strokeColor=none;fillColor=none;" vertex="1" parent="1">
          <mxGeometry y="127" width="80" height="40" as="geometry" />
        </mxCell>
      </root>
    </mxGraphModel>
  </diagram>
</mxfile>
